<?xml version="1.0" standalone="no"?>
<!DOCTYPE svg PUBLIC "-//W3C//DTD SVG 20010904//EN"
 "http://www.w3.org/TR/2001/REC-SVG-20010904/DTD/svg10.dtd">
<svg version="1.0" xmlns="http://www.w3.org/2000/svg"
 width="600.000000pt" height="900.000000pt" viewBox="0 0 600.000000 900.000000"
 preserveAspectRatio="xMidYMid meet">

<g transform="translate(0.000000,900.000000) scale(0.100000,-0.100000)"
fill="#000000" stroke="none">
<path d="M0 6534 l0 -2466 30 32 c16 18 27 36 24 41 -3 5 2 9 10 9 9 0 16 7
16 15 0 9 11 20 25 25 14 5 25 13 25 18 0 13 36 52 48 52 11 0 22 23 22 48 1
19 44 72 59 72 6 0 17 14 26 30 9 17 20 30 25 30 6 0 10 7 10 15 0 8 7 15 15
15 8 0 15 6 15 14 0 7 6 19 14 26 8 6 13 17 10 25 -3 7 3 16 15 20 21 6 23 10
25 55 1 17 6 25 18 24 10 -1 15 2 12 7 -3 5 2 9 10 9 9 0 16 5 16 11 0 6 6 16
12 24 7 7 29 36 48 64 19 27 40 50 45 51 6 0 29 23 53 50 24 28 48 50 55 50 7
0 27 16 46 35 19 19 40 35 47 35 8 0 14 7 14 15 0 9 9 15 24 15 13 0 26 6 29
13 3 8 20 22 39 31 72 37 83 46 83 63 0 12 12 20 38 26 26 6 37 14 33 23 -3 8
12 24 39 41 25 16 42 34 40 41 -3 7 -1 10 5 7 5 -3 26 17 47 44 21 27 44 50
51 50 7 1 21 15 30 31 10 17 23 28 30 25 12 -4 27 23 23 41 -2 8 39 32 152 89
49 24 97 55 108 69 l20 26 -64 0 c-35 0 -66 3 -70 6 -3 4 12 25 33 48 22 22
52 56 67 74 23 27 36 34 68 35 50 3 65 13 90 60 11 21 32 50 46 65 188 196
262 287 275 336 5 20 -2 27 -43 48 -59 31 -75 59 -68 115 5 34 19 55 76 116
60 64 75 75 112 80 95 13 287 91 287 116 0 5 56 65 125 133 69 67 125 128 125
134 0 6 11 17 25 24 13 7 27 21 30 31 3 9 12 20 20 23 8 3 15 12 15 21 0 8 3
15 8 15 4 0 24 16 46 35 25 23 36 40 32 51 -3 9 -11 12 -18 8 -10 -6 -11 -5
-1 8 11 13 7 17 -30 27 -60 18 -127 59 -128 79 -3 34 3 48 43 100 28 36 47 52
64 52 12 0 26 5 29 11 4 6 14 8 22 5 19 -8 224 32 241 47 8 6 50 11 94 12 57
1 84 5 92 16 15 19 102 89 111 89 4 0 24 13 44 29 20 15 46 31 59 35 12 4 22
12 22 17 0 5 5 9 11 9 6 0 22 9 36 20 14 11 34 20 43 20 10 0 23 6 29 14 7 8
37 26 67 41 31 15 58 33 61 41 3 8 16 14 29 14 13 0 24 5 24 10 0 6 5 10 11
10 6 0 38 18 70 40 32 22 61 40 64 40 3 0 18 8 33 18 49 34 133 82 142 82 14
0 114 65 129 84 7 9 21 16 31 16 10 0 23 7 30 15 31 37 209 136 210 117 0 -4
6 0 13 9 7 9 28 19 47 22 37 5 56 11 108 33 85 37 106 50 122 76 17 28 17 32
-5 96 -12 37 -34 80 -49 96 l-26 29 -191 -7 c-105 -4 -197 -10 -205 -13 -23
-9 -130 17 -229 54 -49 19 -208 93 -353 164 l-263 129 -1724 0 -1725 0 0
-2466z m3608 1394 c18 -18 15 -28 -8 -28 -12 0 -49 -13 -83 -29 -82 -38 -135
-52 -195 -50 -43 2 -49 5 -49 23 0 25 58 56 106 56 18 0 42 5 53 11 44 24 158
35 176 17z m-1707 -1375 c-20 -25 -20 -27 -4 -45 15 -17 15 -20 3 -28 -21 -13
-35 -6 -34 16 0 16 -6 19 -38 16 -40 -4 -92 20 -86 40 2 6 31 13 63 15 33 3
62 7 64 9 2 2 15 4 28 4 l24 0 -20 -27z m-401 -771 c0 -14 -61 -82 -74 -82 -7
0 -31 9 -54 20 -22 11 -47 20 -54 21 -27 1 31 17 86 24 31 4 59 11 62 16 6 11
34 12 34 1z m-668 -92 c-28 -10 -85 -21 -125 -24 l-72 -6 105 24 c129 28 162
31 92 6z m632 -9 c3 -5 -3 -11 -15 -14 -16 -4 -18 -3 -8 9 13 16 16 17 23 5z"/>
<path d="M3230 6922 c0 -9 9 -80 21 -157 11 -77 22 -160 26 -185 3 -25 9 -63
13 -85 l7 -40 11 28 c7 15 16 38 22 52 5 14 14 25 20 25 12 0 14 -33 3 -44 -5
-4 -19 -42 -33 -84 -28 -83 -43 -95 -98 -73 -15 5 -88 26 -162 46 -74 21 -182
51 -240 67 -340 97 -350 98 -346 28 1 -18 7 -26 23 -28 18 -3 23 3 28 32 5 25
11 33 21 29 16 -6 11 -57 -8 -80 -11 -14 46 -43 124 -63 24 -6 63 -18 88 -27
29 -9 109 -17 222 -22 98 -4 181 -11 185 -15 5 -5 -46 -7 -112 -4 -66 2 -138
1 -160 -2 l-40 -7 45 -2 c119 -5 294 -1 370 9 3 0 -2 5 -10 10 -20 13 -3 13
59 -1 71 -15 73 -29 4 -23 -55 4 -57 4 -35 -11 13 -9 49 -18 85 -20 34 -2 78
-10 98 -18 19 -9 91 -30 160 -47 68 -17 148 -43 178 -56 29 -14 70 -28 90 -31
20 -3 81 -27 136 -54 105 -50 180 -79 205 -78 21 1 -14 15 -67 29 -24 6 -43
15 -43 20 0 6 -8 10 -18 10 -10 0 -27 6 -38 14 -17 13 -15 14 21 6 92 -21 31
15 -93 54 -46 14 -91 26 -100 26 -9 1 -30 7 -47 16 l-30 14 35 -4 c34 -4 36
-2 49 37 20 68 92 227 102 227 13 0 11 34 -3 50 -8 8 -4 7 10 -3 13 -8 31 -25
39 -37 15 -21 14 -23 -1 -32 -9 -5 -14 -13 -11 -18 7 -11 -28 -137 -51 -187
-8 -17 -14 -35 -14 -41 0 -17 121 -64 180 -69 45 -4 62 -2 74 9 8 9 13 18 10
21 -3 3 -1 13 4 24 38 76 58 135 79 231 6 23 -22 54 -42 48 -5 -1 -17 5 -27
13 -15 13 -18 31 -18 98 0 73 -2 84 -20 93 -12 6 -29 8 -40 5 -10 -3 -119 25
-247 64 -225 69 -509 149 -610 173 -38 9 -53 18 -53 29 0 9 -7 19 -15 23 -10
3 -15 -1 -15 -12z m464 -238 c33 -9 68 -22 76 -29 8 -7 49 -30 90 -50 80 -40
120 -70 120 -92 0 -15 -16 -17 -25 -3 -7 11 -45 14 -45 4 0 -4 8 -13 18 -20
16 -12 16 -13 -1 -26 -15 -11 -67 -152 -67 -182 0 -21 -33 -97 -39 -89 -5 8
-246 79 -346 102 -32 7 -96 28 -113 37 -2 1 6 17 17 35 54 92 114 242 113 284
-1 16 5 33 11 37 21 13 126 9 191 -8z m-530 -324 c5 -5 -8 -5 -30 1 -57 15
-64 20 -19 13 22 -3 44 -10 49 -14z m-171 -7 c-7 -2 -21 -2 -30 0 -10 3 -4 5
12 5 17 0 24 -2 18 -5z m217 -3 c8 -5 11 -10 5 -10 -5 0 -17 5 -25 10 -8 5
-10 10 -5 10 6 0 17 -5 25 -10z"/>
<path d="M4301 6869 c-13 -39 -14 -46 -2 -33 9 10 24 64 17 64 -2 0 -9 -14
-15 -31z"/>
<path d="M4277 6798 c-39 -98 -46 -118 -39 -118 9 0 55 121 48 127 -2 2 -6 -2
-9 -9z"/>
<path d="M2313 6589 c-6 -8 -29 -70 -52 -139 -22 -69 -63 -192 -91 -274 -28
-83 -48 -155 -46 -160 2 -6 5 -5 5 2 1 8 8 28 15 45 16 34 57 146 86 238 10
30 32 85 49 121 17 36 31 72 31 81 0 9 5 19 10 22 6 3 10 18 10 32 0 23 3 25
33 19 17 -4 50 -9 72 -11 l40 -5 -35 16 c-50 23 -113 29 -127 13z"/>
<path d="M2390 6550 c0 -5 5 -10 11 -10 5 0 7 5 4 10 -3 6 -8 10 -11 10 -2 0
-4 -4 -4 -10z"/>
<path d="M2368 6523 c7 -3 16 -2 19 1 4 3 -2 6 -13 5 -11 0 -14 -3 -6 -6z"/>
<path d="M2400 6481 c0 -6 4 -13 10 -16 6 -3 7 1 4 9 -7 18 -14 21 -14 7z"/>
<path d="M2330 6462 c-8 -9 -15 -21 -17 -26 -6 -28 -30 -85 -41 -99 -11 -13
-10 -19 8 -37 24 -24 19 -40 -14 -40 -21 0 -27 -11 -56 -100 -20 -63 -31 -111
-28 -132 5 -29 -4 -75 -27 -148 l-8 -25 21 25 c18 21 21 22 22 8 0 -10 -4 -18
-10 -18 -5 0 -10 -8 -10 -17 0 -10 -7 -31 -15 -47 -8 -15 -15 -33 -15 -38 0
-29 82 80 85 112 4 42 18 80 34 94 17 15 82 25 176 26 41 0 85 40 92 83 5 31
2 36 -23 46 -38 15 -70 34 -92 54 -10 10 -26 17 -35 17 -9 0 -19 11 -23 25 -6
25 -24 35 -24 13 0 -6 -3 -8 -6 -5 -4 4 -1 19 5 35 7 16 14 57 16 92 2 34 6
64 9 67 9 10 27 -9 22 -23 -3 -8 1 -14 10 -14 12 0 14 7 9 33 -4 17 -11 39
-16 47 -7 12 -9 11 -9 -5 -1 -18 -2 -18 -13 -4 -11 15 -14 15 -27 1z m-11
-317 c-8 -45 -21 -64 -43 -65 -9 0 -7 7 21 87 22 61 35 48 22 -22z"/>
<path d="M2480 6380 c0 -5 5 -10 11 -10 5 0 7 5 4 10 -3 6 -8 10 -11 10 -2 0
-4 -4 -4 -10z"/>
<path d="M2501 6348 c-5 -13 -5 -30 0 -40 5 -9 9 -26 9 -37 0 -14 9 -23 26
-27 24 -6 25 -9 20 -65 -2 -33 0 -59 4 -59 10 0 21 55 17 85 -2 17 5 21 37 23
45 4 87 28 80 46 -6 15 -105 66 -127 66 -8 0 -20 7 -27 15 -17 21 -29 19 -39
-7z m128 -74 c10 -10 -8 -14 -37 -8 -18 4 -29 11 -26 16 6 9 53 3 63 -8z"/>
<path d="M2382 6340 c0 -14 2 -19 5 -12 2 6 2 18 0 25 -3 6 -5 1 -5 -13z"/>
<path d="M2794 6263 c0 -15 7 -17 44 -14 28 2 42 0 38 -7 -6 -10 121 -8 132 3
10 10 -3 13 -83 20 -44 3 -91 8 -105 11 -20 4 -26 0 -26 -13z"/>
<path d="M3279 6260 c-16 -11 -2 -30 22 -30 23 0 25 -15 4 -24 -23 -8 -18 -25
10 -32 15 -4 24 -12 23 -21 -4 -19 67 -62 103 -63 20 0 28 -6 31 -25 9 -44
-12 -59 -73 -52 -30 4 -69 9 -86 13 -38 7 -46 -11 -10 -21 12 -4 48 -16 79
-28 49 -19 55 -24 46 -40 -6 -11 -16 -16 -25 -13 -19 8 -43 -11 -43 -34 0 -9
18 -30 40 -45 23 -16 39 -34 36 -41 -3 -7 2 -10 15 -7 13 4 19 0 19 -11 0 -9
5 -16 10 -16 6 0 10 -9 10 -20 0 -11 7 -20 15 -20 9 0 26 -7 39 -16 14 -8 35
-16 48 -18 13 -1 30 -6 38 -11 25 -16 80 -20 173 -14 43 3 117 -5 117 -13 0
-4 18 -8 40 -8 22 0 40 5 40 10 0 6 -4 10 -10 10 -5 0 -10 5 -10 11 0 5 5 7
10 4 23 -14 8 13 -20 35 -16 14 -46 40 -65 58 -29 28 -32 32 -13 27 13 -4 30
-14 39 -21 8 -8 21 -14 27 -14 6 0 17 -8 24 -17 12 -17 46 -36 141 -78 21 -10
39 -16 40 -14 22 40 27 50 27 59 0 5 -5 10 -12 10 -12 0 -133 45 -159 60 -9 5
-34 13 -55 19 -48 14 -71 28 -61 38 5 4 12 1 17 -7 6 -8 10 -10 10 -4 0 17
-36 54 -52 54 -8 0 -23 9 -33 20 -10 11 -26 22 -37 26 -10 3 -23 16 -28 30 -7
16 -14 22 -26 17 -14 -5 -14 -3 -2 16 8 13 20 20 30 17 27 -6 42 18 28 45 -10
17 -9 23 1 30 7 4 10 11 6 15 -17 17 -134 58 -272 94 -82 22 -173 46 -202 53
-29 8 -57 11 -64 7z m236 -254 c18 -13 18 -14 -4 -21 -23 -7 -55 11 -45 26 8
13 27 11 49 -5z m165 -30 c-10 -5 -27 -5 -37 -2 -16 7 -16 9 7 26 22 17 25 17
36 2 11 -14 10 -19 -6 -26z m-96 4 c17 -6 24 -14 20 -25 -8 -21 -31 -19 -44 4
-18 34 -15 36 24 21z m149 -36 c15 -4 27 -10 27 -15 0 -5 9 -9 19 -9 10 0 21
-6 24 -14 3 -8 19 -17 36 -21 28 -6 44 -25 22 -25 -13 0 -95 44 -99 53 -2 4
-11 7 -20 7 -9 1 -33 10 -52 21 -28 16 -30 19 -10 14 14 -3 37 -8 53 -11z
m292 -184 c3 -6 -1 -7 -9 -4 -18 7 -21 14 -7 14 6 0 13 -4 16 -10z"/>
<path d="M2647 6193 c-10 -15 4 -53 19 -53 17 0 17 8 0 39 -7 13 -16 19 -19
14z"/>
<path d="M2995 6090 c-4 -6 11 -10 41 -10 54 0 55 4 2 14 -21 4 -39 2 -43 -4z"/>
<path d="M2718 6044 c-9 -9 20 -73 50 -110 28 -35 49 -45 38 -19 -3 8 -9 22
-13 32 -4 11 -3 14 5 9 8 -5 12 1 12 18 0 15 -7 27 -19 31 -10 3 -26 14 -36
25 -19 21 -28 24 -37 14z"/>
<path d="M2365 5910 c-11 -17 5 -32 21 -19 8 6 14 15 14 20 0 12 -27 11 -35
-1z"/>
<path d="M4717 5843 c-4 -3 -7 -11 -7 -17 0 -6 5 -5 12 2 6 6 9 14 7 17 -3 3
-9 2 -12 -2z"/>
<path d="M4310 5691 c0 -9 34 -21 60 -21 11 1 10 4 -4 15 -22 16 -56 20 -56 6z"/>
<path d="M4649 5658 c-5 -17 -4 -48 3 -48 4 0 8 11 8 25 0 20 -7 34 -11 23z"/>
<path d="M2000 5511 c-24 -61 -41 -113 -38 -116 2 -3 15 21 27 53 13 31 32 79
43 105 10 27 18 53 16 59 -2 6 -24 -40 -48 -101z"/>
<path d="M2868 5449 c-10 -5 -18 -15 -18 -20 0 -6 7 -4 15 5 12 12 22 13 43 6
25 -10 26 -9 8 5 -23 17 -25 18 -48 4z"/>
<path d="M2962 5394 c-23 -24 -23 -24 -2 -24 12 0 30 -5 41 -10 15 -8 19 -7
19 4 0 9 -6 13 -14 10 -19 -7 -31 15 -17 29 9 9 14 8 21 -3 8 -13 10 -12 10 3
0 25 -31 20 -58 -9z"/>
<path d="M2850 5402 c0 -14 44 -27 65 -18 20 7 19 26 -1 26 -8 0 -12 -4 -9
-10 9 -14 -29 -12 -43 2 -9 9 -12 9 -12 0z"/>
<path d="M3093 5388 c15 -5 27 -14 27 -19 0 -12 -17 -11 -40 1 -15 8 -20 6
-25 -11 -8 -24 8 -39 41 -39 16 0 23 8 27 28 6 33 -8 52 -37 51 -18 0 -17 -2
7 -11z m1 -34 c9 -3 16 -10 16 -16 0 -14 -43 -5 -48 10 -4 13 7 15 32 6z"/>
<path d="M1932 5338 c-10 -30 -10 -31 3 -14 13 17 21 46 12 46 -1 0 -8 -15
-15 -32z"/>
<path d="M3189 5361 c34 -9 39 -31 8 -31 -14 0 -27 6 -29 12 -3 7 -7 3 -10 -9
-4 -16 -2 -20 10 -16 8 4 21 -2 28 -12 13 -17 14 -17 14 -2 0 9 5 17 10 17 6
0 10 9 10 19 0 20 -20 32 -48 30 -10 -1 -7 -4 7 -8z"/>
<path d="M3261 5324 c0 -11 3 -14 6 -6 3 7 2 16 -1 19 -3 4 -6 -2 -5 -13z"/>
<path d="M3306 5323 c-10 -26 -6 -33 16 -33 21 0 21 0 2 16 -18 14 -17 15 13
11 37 -4 36 8 -1 15 -16 3 -27 0 -30 -9z"/>
<path d="M4587 5287 c-5 -21 -10 -46 -13 -55 -2 -9 3 -2 11 17 9 18 15 43 13
55 -3 15 -6 9 -11 -17z"/>
<path d="M1906 5283 c-6 -14 -5 -15 5 -6 7 7 10 15 7 18 -3 3 -9 -2 -12 -12z"/>
<path d="M3290 5270 c0 -8 50 -24 56 -18 2 2 -10 9 -26 15 -17 6 -30 8 -30 3z"/>
<path d="M3551 5266 c2 -2 18 -6 34 -10 22 -5 26 -4 15 4 -14 9 -59 15 -49 6z"/>
<path d="M3390 5240 c8 -5 22 -9 30 -9 10 0 8 3 -5 9 -27 12 -43 12 -25 0z"/>
<path d="M3545 5240 c-3 -5 1 -10 10 -10 9 0 13 5 10 10 -3 6 -8 10 -10 10 -2
0 -7 -4 -10 -10z"/>
<path d="M3470 5220 c8 -5 20 -10 25 -10 6 0 3 5 -5 10 -8 5 -19 10 -25 10 -5
0 -3 -5 5 -10z"/>
<path d="M2772 5208 c-7 -7 -12 -27 -12 -45 0 -36 25 -57 62 -51 35 5 31 23
-4 23 -30 0 -33 3 -33 30 0 24 5 31 23 33 13 2 30 -2 38 -9 19 -16 30 -4 14
16 -15 18 -71 20 -88 3z"/>
<path d="M1806 5064 c-32 -74 -56 -138 -53 -140 3 -3 16 23 30 58 14 35 39 96
56 137 17 41 30 76 28 78 -2 2 -30 -58 -61 -133z"/>
<path d="M2898 5140 c-17 -51 -11 -65 13 -31 20 28 59 11 60 -26 0 -27 1 -26
19 12 10 22 19 49 19 60 1 19 -1 19 -17 -3 -15 -20 -22 -22 -44 -13 -20 7 -25
15 -21 30 11 43 -13 19 -29 -29z"/>
<path d="M3050 5100 c-23 -24 -39 -45 -36 -48 3 -3 12 0 19 6 18 15 85 -5 90
-27 3 -9 5 0 5 19 0 46 -11 83 -26 88 -6 2 -30 -15 -52 -38z m60 -11 c0 -20
-8 -23 -35 -13 -15 6 -14 8 1 25 19 21 34 16 34 -12z"/>
<path d="M3185 5065 c-10 -25 -15 -48 -11 -52 3 -3 11 8 17 25 15 43 26 40 40
-8 7 -22 16 -40 21 -40 11 0 38 62 38 87 0 21 -17 6 -22 -20 -5 -30 -20 -24
-33 12 -16 50 -30 49 -50 -4z"/>
<path d="M3332 5032 c-15 -50 -15 -72 1 -72 6 0 22 -3 35 -6 12 -4 22 -2 22 4
0 6 -13 13 -30 17 -51 11 -37 30 19 25 14 -1 21 2 17 9 -4 6 -16 11 -27 11
-12 0 -19 5 -16 13 2 7 17 11 38 9 42 -4 29 15 -17 24 -28 5 -31 3 -42 -34z"/>
<path d="M1830 5028 c-11 -18 -20 -37 -20 -43 0 -5 4 -4 9 4 5 7 14 10 20 7 7
-5 11 1 11 13 0 12 5 21 10 21 6 0 10 7 10 15 0 25 -19 17 -40 -17z"/>
<path d="M3450 4985 c-7 -25 -11 -47 -9 -49 2 -2 19 -7 38 -11 23 -5 31 -4 27
4 -4 6 -16 11 -26 11 -27 0 -30 10 -15 53 7 20 9 37 5 37 -4 0 -13 -20 -20
-45z"/>
<path d="M1791 4943 c-10 -26 -10 -27 4 -9 8 11 15 23 15 28 0 15 -7 8 -19
-19z"/>
<path d="M1550 4302 c0 -12 19 -26 26 -19 2 2 -2 10 -11 17 -9 8 -15 8 -15 2z"/>
<path d="M1510 4289 c0 -5 5 -7 10 -4 6 3 10 8 10 11 0 2 -4 4 -10 4 -5 0 -10
-5 -10 -11z"/>
<path d="M1708 4173 c-6 -11 -10 -123 -5 -123 2 0 18 5 36 11 28 10 34 9 46
-7 9 -12 14 -14 15 -6 0 7 5 10 11 6 6 -3 8 -18 5 -33 -6 -24 -5 -25 8 -7 9
10 18 38 22 62 3 24 11 44 17 44 26 0 -13 22 -64 36 -30 9 -61 18 -70 21 -9 2
-19 1 -21 -4z m65 -34 c5 -3 2 -9 -7 -12 -12 -5 -16 0 -16 15 0 12 3 17 8 12
4 -5 11 -12 15 -15z"/>
<path d="M1920 4099 c0 -5 3 -9 8 -9 10 0 32 -50 32 -71 0 -10 6 -21 12 -25 9
-6 5 -10 -11 -14 -14 -3 -27 -12 -29 -19 -4 -12 22 -13 164 -7 93 3 196 13
229 20 l60 13 -45 12 c-25 7 -81 23 -125 36 -197 58 -295 80 -295 64z"/>
<path d="M1736 4041 c-4 -7 -5 -15 -2 -18 9 -9 19 4 14 18 -4 11 -6 11 -12 0z"/>
<path d="M1720 3943 c0 -10 139 -84 157 -83 7 0 16 -6 20 -13 9 -13 70 -37 96
-37 9 0 17 -4 17 -9 0 -9 31 -22 63 -26 9 -1 25 -9 35 -17 9 -9 28 -19 42 -23
14 -4 29 -14 35 -21 5 -8 22 -15 37 -16 15 -1 30 -9 33 -16 3 -8 12 -11 21 -8
9 3 21 3 27 -1 7 -4 24 -6 39 -4 16 1 28 -1 28 -6 0 -4 4 -14 9 -22 8 -12 12
-13 25 -1 14 11 19 10 34 -2 9 -8 36 -24 59 -34 23 -10 43 -23 43 -29 0 -5 19
-11 43 -12 51 -2 74 -7 83 -16 4 -4 18 -7 30 -7 13 0 26 -4 29 -10 3 -5 15
-10 26 -10 11 0 46 -11 79 -24 33 -14 58 -20 54 -14 -4 7 2 8 17 3 13 -4 28
-14 32 -22 5 -8 16 -11 28 -8 11 4 49 -1 84 -10 36 -9 69 -13 74 -10 5 3 12 1
16 -4 3 -6 26 -13 50 -17 25 -3 43 -10 40 -14 -6 -10 19 -20 51 -20 14 0 38
-7 54 -15 22 -11 29 -12 33 -2 3 9 7 9 19 0 8 -7 18 -10 21 -6 4 3 7 1 7 -5 0
-7 17 -12 43 -12 24 0 47 -4 53 -10 5 -5 26 -10 47 -12 21 -1 40 -5 43 -10 2
-4 26 -10 52 -14 26 -3 55 -11 66 -16 12 -6 22 -6 28 0 6 6 27 5 59 -3 33 -9
60 -10 81 -5 16 5 33 8 37 7 3 -1 8 2 11 7 7 12 -118 47 -410 116 -19 5 -61
16 -92 24 -32 9 -82 22 -110 30 -29 8 -103 28 -164 45 -61 17 -198 56 -305 87
-107 31 -207 60 -224 65 -28 7 -223 64 -325 94 -25 8 -63 19 -85 25 -22 6 -59
20 -82 31 -24 10 -51 19 -60 19 -20 1 -75 29 -57 30 6 0 42 -9 80 -20 38 -12
85 -26 104 -31 19 -6 55 -9 80 -7 41 3 33 6 -86 36 -71 17 -145 32 -163 32
-19 0 -39 7 -45 16 -12 16 -86 38 -181 53 -27 5 -58 12 -67 16 -10 4 -18 3
-18 -2z"/>
<path d="M2860 3841 c0 -6 9 -11 19 -11 11 0 28 -3 38 -6 14 -4 15 -4 3 4 -27
17 -60 24 -60 13z"/>
<path d="M2865 3810 c3 -5 14 -10 23 -10 15 0 15 2 2 10 -20 13 -33 13 -25 0z"/>
<path d="M2960 3791 c0 -31 19 -45 46 -34 9 3 20 0 25 -8 5 -9 29 -15 66 -16
71 -3 134 -12 148 -21 9 -7 21 -7 50 -3 24 4 -200 74 -242 75 -11 1 -19 4 -17
8 3 4 -8 10 -23 14 -15 3 -34 7 -40 10 -8 2 -13 -7 -13 -25z"/>
<path d="M2375 3759 c-11 -4 -15 -8 -10 -9 79 -9 101 -13 105 -20 13 -19 293
-90 311 -79 11 7 10 9 -3 9 -10 0 -17 5 -15 11 3 14 -97 41 -236 64 -56 9
-109 20 -117 24 -8 5 -24 5 -35 0z"/>
<path d="M2815 3650 c3 -5 8 -10 11 -10 2 0 4 5 4 10 0 6 -5 10 -11 10 -5 0
-7 -4 -4 -10z"/>
<path d="M2865 3640 c-3 -5 -1 -10 4 -10 6 0 11 5 11 10 0 6 -2 10 -4 10 -3 0
-8 -4 -11 -10z"/>
<path d="M2828 3623 c7 -3 16 -2 19 1 4 3 -2 6 -13 5 -11 0 -14 -3 -6 -6z"/>
<path d="M2970 3611 c0 -6 5 -13 10 -16 6 -3 10 1 10 9 0 9 -4 16 -10 16 -5 0
-10 -4 -10 -9z"/>
<path d="M3030 3590 c0 -5 5 -10 10 -10 6 0 10 5 10 10 0 6 -4 10 -10 10 -5 0
-10 -4 -10 -10z"/>
<path d="M3052 3572 c-8 -6 27 -20 95 -40 124 -37 124 -37 117 -18 -6 17 -90
47 -120 45 -10 -1 -32 -1 -49 0 -26 2 -27 3 -10 11 l20 9 -20 0 c-11 0 -26 -3
-33 -7z"/>
<path d="M3281 3509 c-1 -11 16 -20 54 -31 57 -16 67 -11 38 17 -11 12 -25 15
-49 11 -21 -5 -34 -2 -37 6 -4 9 -6 8 -6 -3z"/>
<path d="M3420 3470 c-8 -5 -12 -10 -10 -12 8 -6 99 -28 115 -28 27 0 16 18
-15 25 -16 4 -32 11 -35 16 -8 12 -36 11 -55 -1z"/>
<path d="M4720 2945 c-47 -7 -109 -19 -138 -28 -93 -28 -255 -126 -209 -127 9
0 17 -4 17 -10 0 -5 8 -10 18 -10 14 0 15 -2 2 -10 -8 -5 -25 -10 -38 -10 -12
0 -21 -5 -20 -12 2 -9 -9 -12 -34 -10 -31 2 -51 -7 -125 -56 -48 -33 -117 -76
-152 -95 -77 -43 -72 -46 84 -50 95 -2 98 -3 55 -13 l-45 -10 45 -16 c25 -8
44 -21 42 -27 -1 -6 6 -11 15 -12 11 0 13 -3 6 -6 -18 -7 -83 16 -83 29 0 6
-6 6 -15 -2 -11 -9 -26 -9 -65 -1 -28 6 -71 11 -96 11 -41 0 -45 -2 -39 -20 4
-11 2 -20 -4 -20 -6 0 -34 -15 -63 -33 -29 -18 -67 -39 -85 -46 -38 -15 -64
-41 -41 -41 8 0 18 4 23 9 15 14 159 51 200 51 29 0 39 -6 55 -32 11 -18 20
-36 20 -40 0 -5 -72 -8 -159 -8 -119 0 -160 3 -164 13 -3 9 -9 9 -28 -1 -27
-14 -171 -53 -177 -48 -4 5 185 106 299 160 49 24 86 45 83 48 -8 8 -69 -10
-132 -38 -29 -13 -55 -24 -58 -24 -5 0 -115 -60 -184 -99 -8 -5 -41 -24 -72
-42 -31 -18 -59 -41 -62 -52 -4 -16 -11 -19 -35 -14 -17 4 -31 3 -31 -2 0 -5
-23 -14 -50 -21 -28 -7 -52 -16 -55 -20 -3 -4 -15 -6 -28 -3 -18 4 -19 3 -7
-6 12 -9 10 -10 -12 -9 -14 1 -37 -3 -50 -10 -21 -11 -76 -34 -88 -37 -58 -14
-80 -29 -80 -51 0 -15 -4 -23 -10 -19 -6 4 -8 11 -5 16 4 5 2 9 -4 9 -6 0 -13
-11 -17 -24 -6 -27 10 -49 59 -79 30 -19 36 -37 12 -37 -8 0 -15 5 -15 10 0 6
-8 10 -18 10 -10 0 -22 4 -28 9 -5 5 -47 15 -93 21 -67 9 -90 9 -108 -1 -19
-10 -28 -10 -43 -1 -11 7 -30 12 -42 11 -22 0 -22 -1 -3 -8 16 -7 10 -10 -30
-17 -58 -9 -64 -11 -67 -14 -2 -1 -14 -4 -28 -5 -14 -2 -86 -19 -160 -39 -74
-21 -160 -43 -190 -50 -30 -8 -82 -21 -115 -31 -121 -34 -179 -45 -321 -60
-279 -30 -577 -100 -871 -208 l-113 -41 0 -33 c0 -29 7 -38 67 -81 36 -26 83
-60 103 -77 21 -16 61 -48 90 -70 91 -70 95 -73 90 -78 -3 -3 -52 26 -110 64
-161 107 -147 103 -232 79 -79 -22 -263 -58 -325 -64 -63 -6 -252 -36 -343
-55 l-85 -17 -3 -47 c-2 -26 1 -47 5 -47 4 0 28 5 53 11 25 6 95 20 155 31 61
11 133 24 160 29 69 14 94 17 295 34 96 8 185 17 198 19 12 2 25 0 27 -5 3 -4
20 -5 38 -2 30 4 38 0 88 -54 74 -80 115 -145 184 -293 64 -136 82 -168 129
-219 52 -56 124 -104 276 -183 177 -92 331 -181 386 -222 23 -17 55 -40 70
-51 16 -11 66 -53 111 -93 l82 -72 1015 0 c559 0 1016 3 1016 7 0 10 -132 204
-157 232 -23 24 -31 71 -13 71 19 0 110 -50 110 -60 0 -6 3 -9 8 -8 8 1 29 -7
127 -52 39 -17 76 -37 84 -43 7 -6 19 -12 26 -13 7 -1 22 -11 34 -23 12 -12
28 -21 36 -21 8 0 15 -5 15 -10 0 -6 3 -9 8 -8 19 5 152 -45 152 -58 0 -12 94
-14 640 -14 l640 0 0 26 c0 14 -24 62 -53 107 -70 107 -82 136 -62 143 17 7
71 1 98 -11 16 -7 17 55 15 1261 l-3 1269 -150 36 c-180 44 -343 70 -648 104
-250 27 -347 29 -477 10z m-296 -317 l46 -63 -32 -6 c-53 -11 -338 -20 -338
-12 1 10 109 83 174 117 77 41 96 36 150 -36z m-135 -101 c-2 -1 -13 -9 -23
-17 -11 -8 -17 -10 -13 -3 4 6 1 14 -5 16 -7 3 0 6 16 6 16 1 27 0 25 -2z m56
-97 l20 -9 -20 0 c-11 0 -27 4 -35 9 -13 9 -13 10 0 9 8 0 24 -4 35 -9z m91
-25 c15 -11 16 -14 3 -15 -8 0 -24 7 -35 15 -15 11 -16 14 -3 15 8 0 24 -7 35
-15z m154 -36 c10 -6 4 -8 -20 -9 -20 0 -40 4 -45 9 -6 5 -19 11 -30 14 -11 3
3 3 30 0 28 -3 57 -9 65 -14z m128 -27 c3 -9 -2 -13 -14 -10 -9 1 -19 9 -22
16 -3 9 2 13 14 10 9 -1 19 -9 22 -16z m70 -2 c6 0 12 -4 12 -8 0 -4 -16 -6
-35 -4 -19 2 -35 9 -35 14 0 6 10 8 23 4 12 -3 28 -6 35 -6z m53 -17 c13 -15
12 -15 -8 -4 -24 12 -29 21 -14 21 5 0 15 -7 22 -17z m99 -13 c20 -7 16 -8
-22 -9 -27 -1 -48 4 -48 9 0 12 34 12 70 0z m280 -60 c0 -5 -4 -10 -10 -10 -5
0 -10 5 -10 10 0 6 5 10 10 10 6 0 10 -4 10 -10z m-1803 -96 c-3 -3 -12 -4
-19 -1 -8 3 -5 6 6 6 11 1 17 -2 13 -5z m-141 -50 c-86 -42 -166 -59 -166 -35
0 11 205 80 235 80 11 0 -20 -20 -69 -45z m270 -51 c16 -21 55 -69 87 -106 33
-37 57 -71 53 -74 -12 -12 -111 19 -231 74 -66 30 -136 61 -155 70 -32 14 -33
16 -15 26 41 23 132 46 182 46 49 1 54 -1 79 -36z m-381 -73 c3 -5 2 -10 -4
-10 -5 0 -13 5 -16 10 -3 6 -2 10 4 10 5 0 13 -4 16 -10z m-296 -39 c18 -11 7
-41 -14 -41 -16 0 -91 -17 -275 -62 -47 -11 -137 -36 -200 -55 -211 -64 -280
-77 -295 -54 -6 10 14 17 250 81 201 55 459 131 464 136 8 7 56 4 70 -5z m228
-64 c4 -6 -4 -7 -23 -3 -41 10 -51 24 -14 18 17 -2 33 -9 37 -15z m68 -47 c3
-5 2 -10 -4 -10 -5 0 -13 5 -16 10 -3 6 -2 10 4 10 5 0 13 -4 16 -10z m-217
-41 c55 -99 157 -274 239 -407 52 -85 93 -156 90 -158 -2 -2 -39 24 -83 59
-249 200 -432 289 -817 402 -32 9 -57 18 -55 19 1 2 50 16 108 31 193 51 354
83 428 84 72 1 73 0 90 -30z m302 -19 c0 -5 -4 -10 -10 -10 -5 0 -10 5 -10 10
0 6 5 10 10 10 6 0 10 -4 10 -10z m-1390 -122 c-19 -6 -100 -31 -180 -55 -80
-24 -185 -56 -235 -70 -49 -14 -133 -38 -186 -54 l-96 -29 -91 27 c-51 14 -92
29 -92 33 0 8 175 62 275 84 218 48 405 74 535 74 88 0 99 -2 70 -10z m2233
-19 c12 -11 33 -26 47 -32 23 -10 24 -11 5 -14 -25 -5 -118 45 -109 58 9 15
34 10 57 -12z m-2040 -100 c9 -20 27 -76 38 -125 11 -49 34 -129 50 -179 51
-152 49 -145 34 -145 -7 0 -15 4 -17 9 -5 15 -140 100 -208 133 -134 63 -253
92 -470 113 -78 8 -155 35 -155 55 0 23 238 96 535 164 36 8 90 14 120 13 53
-2 56 -4 73 -38z m1585 -5 c1 -21 -2 -33 -8 -29 -12 7 -14 65 -2 65 4 0 8 -16
10 -36z m640 -11 c2 -8 -5 -13 -17 -13 -12 0 -21 6 -21 16 0 18 31 15 38 -3z
m-571 -39 c-3 -3 -12 -4 -19 -1 -8 3 -5 6 6 6 11 1 17 -2 13 -5z m28 -50 c20
-8 35 -18 32 -21 -8 -8 -77 17 -77 28 0 12 1 12 45 -7z m159 -72 c2 -4 1 -14
-4 -22 -7 -11 -11 -11 -24 -1 -9 7 -13 17 -10 22 7 11 31 12 38 1z m346 -67
c0 -17 -4 -18 -50 -9 -22 5 -28 9 -18 15 22 15 68 11 68 -6z m-83 -37 c-3 -8
-6 -5 -6 6 -1 11 2 17 5 13 3 -3 4 -12 1 -19z"/>
<path d="M560 1450 c-98 -18 -150 -32 -146 -39 2 -3 -20 -7 -49 -7 -30 -1
-124 -18 -209 -39 l-156 -37 0 -42 0 -42 193 48 c105 27 235 55 287 64 147 24
155 28 156 69 1 38 1 38 -76 25z"/>
</g>
</svg>
