<?xml version="1.0" standalone="no"?>
<!DOCTYPE svg PUBLIC "-//W3C//DTD SVG 20010904//EN"
 "http://www.w3.org/TR/2001/REC-SVG-20010904/DTD/svg10.dtd">
<svg version="1.0" xmlns="http://www.w3.org/2000/svg"
 width="686.000000pt" height="480.000000pt" viewBox="0 0 686.000000 480.000000"
 preserveAspectRatio="xMidYMid meet">

<g transform="translate(0.000000,480.000000) scale(0.100000,-0.100000)"
fill="#000000" stroke="none">
<path d="M4 3488 c3 -722 5 -1357 5 -1410 1 -58 5 -98 11 -98 6 0 11 12 11 28
l1 27 8 -30 8 -30 1 33 c0 17 5 32 9 32 5 0 15 11 22 24 7 14 22 26 34 28 13
2 25 14 31 33 6 17 17 31 25 33 15 4 34 28 36 47 1 6 2 21 3 34 1 20 3 21 16
11 12 -10 15 -10 15 1 0 8 10 19 23 24 14 6 22 18 21 33 0 17 4 21 18 16 13
-4 18 0 18 14 0 11 11 27 25 36 14 9 23 21 20 26 -4 6 -1 10 5 10 7 0 9 8 5
20 -4 12 -2 20 5 20 7 0 9 7 6 15 -3 9 -1 15 7 14 30 -4 38 2 32 20 -4 14 6
28 40 56 25 21 45 43 45 50 0 7 11 24 25 39 14 15 25 29 25 31 0 12 122 125
135 125 8 0 20 11 25 24 5 13 19 28 31 31 27 9 49 29 49 44 0 6 11 11 25 11
14 0 25 5 25 10 0 6 6 10 14 10 7 0 30 13 51 30 20 16 41 27 46 24 5 -3 14 8
20 25 8 22 18 31 32 31 14 0 33 16 51 40 17 22 33 40 37 40 11 0 249 238 249
249 0 5 51 35 113 67 62 31 120 67 128 78 16 21 16 21 -45 24 -33 2 -65 7 -70
12 -10 10 10 40 28 40 6 1 28 25 49 55 29 43 44 55 72 61 19 3 41 4 49 1 15
-6 46 23 66 63 21 40 104 139 118 139 6 1 12 5 12 9 0 4 24 32 53 63 28 30 61
68 72 84 11 16 30 41 43 57 13 15 21 32 18 37 -4 5 -2 12 4 16 20 12 9 24 -44
49 -61 29 -72 48 -67 115 3 39 11 51 80 122 65 67 83 79 110 79 39 0 163 40
229 74 27 14 76 56 114 98 36 40 70 76 74 81 4 4 -570 7 -1275 7 l-1282 0 5
-1312z m1936 1015 c0 -4 -10 -18 -22 -31 -17 -18 -18 -24 -7 -19 22 7 38 -10
32 -34 -7 -26 -27 -24 -43 6 -11 20 -21 25 -53 25 -41 0 -102 35 -76 44 35 12
169 19 169 9z m-410 -791 c0 -16 -60 -92 -73 -92 -6 0 -24 6 -38 14 -14 7 -38
16 -54 20 -40 10 -18 22 68 37 37 7 70 16 73 21 7 11 24 10 24 0z m-577 -69
c-7 -2 -19 -2 -25 0 -7 3 -2 5 12 5 14 0 19 -2 13 -5z m-108 -34 c-71 -22
-188 -36 -165 -20 8 6 33 11 56 11 22 0 44 4 50 9 9 10 50 18 94 19 14 0 -2
-8 -35 -19z"/>
<path d="M3300 4778 c0 -13 9 -81 21 -153 11 -71 23 -151 26 -177 3 -27 8 -48
12 -48 4 0 15 23 26 50 11 28 23 50 27 50 12 0 11 -9 -24 -112 -22 -67 -39
-100 -53 -107 -14 -7 -15 -10 -5 -10 31 -2 90 -22 90 -31 0 -16 -51 -11 -94 9
-23 10 -68 27 -101 37 -33 10 -52 20 -42 22 10 2 23 -1 30 -6 12 -10 87 -25
87 -18 0 5 -63 24 -295 87 -104 28 -244 67 -310 85 -148 43 -167 42 -172 -8
-3 -29 1 -39 16 -47 17 -10 20 -7 26 30 5 30 11 39 23 37 10 -2 16 -12 14 -23
-1 -11 -3 -28 -4 -37 -1 -10 -6 -18 -10 -18 -4 0 -8 -4 -8 -9 0 -22 192 -83
318 -102 53 -7 79 -15 71 -20 -8 -4 -24 -6 -36 -4 -77 16 -79 16 -58 3 14 -9
80 -14 227 -15 128 -1 215 -6 227 -13 21 -11 29 -40 11 -40 -24 0 -7 -21 21
-27 l32 -6 -24 -18 c-20 -16 -22 -20 -9 -29 8 -5 21 -10 28 -10 7 0 12 -8 10
-17 -2 -13 13 -26 52 -45 30 -16 60 -26 67 -24 16 7 24 -33 10 -56 -11 -18
-20 -19 -82 -15 -38 3 -78 8 -87 12 -10 4 -18 3 -18 -3 0 -6 10 -14 23 -17 49
-14 133 -50 147 -62 12 -11 11 -13 -8 -13 -12 0 -31 -9 -42 -20 -11 -11 -20
-17 -20 -12 0 4 -5 0 -10 -8 -10 -16 23 -60 46 -60 7 0 15 -8 18 -18 3 -10 19
-26 36 -35 16 -10 27 -23 24 -31 -6 -17 22 -40 40 -33 8 3 17 -1 20 -9 3 -8
13 -14 22 -14 9 0 23 -8 30 -17 13 -17 13 -17 14 0 0 21 9 22 24 1 13 -17 52
-21 106 -10 23 5 30 4 21 -2 -7 -5 -10 -15 -6 -21 5 -8 13 -5 26 10 19 22 22
22 82 10 34 -8 77 -15 94 -16 30 -3 32 -1 30 23 -2 27 -23 52 -87 104 -18 15
-30 31 -25 35 4 5 10 2 12 -4 3 -7 13 -13 24 -13 10 0 19 -4 19 -9 0 -5 14
-12 30 -16 17 -4 30 -13 30 -21 0 -8 5 -14 10 -14 6 0 10 -10 10 -22 0 -16 3
-19 8 -10 7 10 15 10 40 -1 18 -7 30 -16 26 -19 -3 -4 3 -4 14 -1 13 3 28 -3
41 -16 22 -22 37 -28 26 -11 -3 5 3 18 15 30 11 11 20 24 20 28 0 5 -28 17
-62 27 -35 10 -67 22 -72 27 -15 12 -44 10 -49 -4 -3 -7 -6 -1 -6 15 -1 22 -6
27 -25 27 -14 0 -31 9 -39 21 -11 15 -16 17 -20 7 -4 -10 -8 -10 -16 2 -6 8
-9 20 -6 27 5 15 -21 37 -35 28 -8 -5 -8 -11 1 -21 14 -17 5 -18 -38 -2 -38
14 -45 33 -8 24 15 -4 25 -2 25 5 0 15 -26 39 -43 39 -7 0 -20 11 -27 25 -7
14 -20 25 -28 25 -13 0 -12 3 2 19 11 12 25 17 38 13 20 -5 21 -2 14 36 -5 35
-3 42 10 42 28 0 -3 28 -39 36 -17 3 -41 12 -52 19 -11 7 -47 20 -80 28 -33 9
-87 23 -120 31 -174 44 -235 62 -235 69 0 4 19 7 42 7 37 0 107 -17 388 -96
30 -9 64 -21 75 -28 11 -7 40 -18 65 -25 25 -7 72 -21 105 -32 33 -10 70 -19
83 -19 13 0 21 -4 17 -10 -3 -5 -13 -6 -23 -3 -40 14 7 -15 66 -41 51 -22 66
-25 75 -16 9 10 8 12 -4 7 -19 -6 -99 28 -99 43 0 5 7 10 16 10 8 0 13 -4 9
-9 -6 -11 33 -26 42 -17 4 3 -2 6 -12 6 -10 0 -15 3 -12 6 18 19 -109 71 -223
92 -25 5 -55 14 -65 20 -17 10 -15 11 18 8 23 -2 37 1 37 8 0 6 20 58 44 116
88 211 87 210 116 155 12 -21 12 -29 3 -32 -7 -3 -13 -16 -13 -30 0 -35 -37
-157 -59 -197 l-18 -32 66 -27 c65 -26 139 -46 173 -47 16 0 48 50 48 76 0 7
9 30 20 50 24 42 52 136 54 178 1 29 -5 34 -56 55 -27 10 -28 12 -28 93 0 46
-4 90 -9 98 -6 9 -24 13 -48 12 -21 -1 -72 9 -113 22 -490 154 -653 196 -755
196 -81 0 -85 -1 -85 -22z m37 -80 c-3 -8 -6 -5 -6 6 -1 11 2 17 5 13 3 -3 4
-12 1 -19z m418 -73 c32 -9 73 -24 89 -34 17 -10 63 -35 101 -56 39 -20 85
-52 103 -71 38 -39 37 -40 -18 -18 -45 18 -64 12 -34 -11 17 -14 18 -16 3 -28
-9 -7 -31 -59 -48 -117 -18 -58 -35 -114 -39 -125 -3 -11 -5 -24 -4 -29 2 -5
-5 -6 -15 -4 -274 77 -368 104 -415 120 l-56 20 30 56 c17 32 34 62 38 67 4 6
18 39 30 75 13 36 26 70 30 75 3 6 7 26 9 45 2 19 5 38 8 43 8 13 126 8 188
-8z m-370 -135 c3 -5 1 -10 -4 -10 -6 0 -11 5 -11 10 0 6 2 10 4 10 3 0 8 -4
11 -10z m-835 -50 c0 -5 -2 -10 -4 -10 -3 0 -8 5 -11 10 -3 6 -1 10 4 10 6 0
11 -4 11 -10z m517 -175 c2 -7 -13 -9 -38 -7 -26 3 -37 7 -28 12 17 11 62 7
66 -5z m161 -10 c3 -3 -29 -5 -72 -5 -47 0 -75 4 -71 10 6 9 133 6 143 -5z
m387 -332 c49 -19 66 -45 34 -51 -10 -2 -19 5 -22 18 -4 14 -13 20 -35 20 -17
0 -32 -6 -35 -12 -6 -18 -14 -8 -23 26 -8 33 -10 33 81 -1z m143 5 c17 -17 15
-26 -5 -31 -16 -4 -15 -6 3 -12 12 -4 44 -18 70 -31 44 -22 45 -24 16 -18 -18
3 -45 12 -60 20 -15 8 -31 14 -37 14 -5 0 -21 12 -34 25 -18 20 -20 25 -7 25
9 0 16 5 16 10 0 14 23 13 38 -2z m386 -263 c11 -8 15 -15 10 -15 -6 0 -19 7
-30 15 -10 8 -14 14 -9 14 6 0 19 -6 29 -14z"/>
<path d="M4371 4793 c-1 -6 -4 -20 -7 -30 -5 -17 -5 -17 6 0 6 10 9 23 6 30
-3 9 -5 9 -5 0z"/>
<path d="M4331 4684 c-26 -70 -27 -91 -2 -40 20 38 37 96 28 96 -2 0 -14 -25
-26 -56z"/>
<path d="M2349 4513 c-33 -85 -190 -556 -187 -564 3 -9 78 184 115 296 15 45
96 246 109 273 1 2 13 0 27 -3 16 -4 24 -12 21 -20 -3 -7 -1 -16 5 -20 6 -3
11 1 11 9 0 9 12 16 33 18 32 3 31 3 -17 21 -73 25 -104 23 -117 -10z"/>
<path d="M2400 4460 c0 -5 5 -10 10 -10 6 0 10 5 10 10 0 6 -4 10 -10 10 -5 0
-10 -4 -10 -10z"/>
<path d="M2369 4392 c-9 -9 -22 -38 -30 -64 -7 -27 -17 -48 -21 -48 -14 0 -9
-37 7 -50 25 -21 18 -42 -11 -38 -23 3 -29 -2 -41 -37 -31 -86 -44 -143 -47
-205 -3 -37 -15 -94 -30 -132 -29 -79 -22 -91 12 -18 12 28 26 50 31 50 9 0
-16 -60 -58 -142 l-19 -37 29 22 c35 25 79 97 79 127 0 11 6 36 14 54 16 39
36 46 148 51 81 4 108 11 108 30 0 7 7 16 16 19 10 4 14 14 11 26 -3 11 -1 23
4 26 19 12 7 24 -50 50 -33 14 -62 33 -65 41 -3 8 -15 13 -27 11 -17 -2 -25 5
-34 32 l-13 35 -11 -25 -12 -25 6 25 c25 100 41 240 28 239 -4 0 -15 -8 -24
-17z m-4 -294 c-6 -59 -17 -89 -31 -84 -7 3 -15 0 -18 -7 -14 -28 6 48 22 84
20 47 31 50 27 7z m-108 -220 c-3 -8 -6 -5 -6 6 -1 11 2 17 5 13 3 -3 4 -12 1
-19z"/>
<path d="M2413 4364 c7 -44 15 -53 27 -34 6 9 6 16 0 18 -6 2 -10 15 -10 28 0
13 -5 24 -11 24 -8 0 -10 -12 -6 -36z"/>
<path d="M2535 4298 c3 -13 8 -30 9 -38 1 -9 5 -20 9 -27 4 -6 4 -18 1 -26 -4
-11 5 -21 25 -32 31 -15 31 -17 25 -73 -5 -53 -4 -56 10 -38 11 14 14 31 10
58 -7 38 -6 38 27 38 48 0 77 10 84 27 8 21 -20 50 -61 63 -19 7 -34 16 -34
21 0 5 -11 9 -24 9 -14 0 -28 5 -31 11 -4 6 -13 8 -21 5 -8 -3 -14 1 -14 9 0
8 -5 15 -11 15 -7 0 -9 -8 -4 -22z m150 -101 c7 -6 2 -8 -15 -3 -14 3 -35 6
-47 6 -13 0 -23 5 -23 10 0 13 70 2 85 -13z"/>
<path d="M2420 4286 c0 -14 5 -28 10 -31 6 -4 10 7 10 24 0 17 -4 31 -10 31
-5 0 -10 -11 -10 -24z"/>
<path d="M2798 4218 c5 -5 16 -8 23 -6 8 3 3 7 -10 11 -17 4 -21 3 -13 -5z"/>
<path d="M2854 4194 c16 -15 38 -20 112 -22 116 -5 133 13 20 21 -45 4 -98 10
-117 13 -33 7 -34 6 -15 -12z"/>
<path d="M2690 4116 c0 -25 12 -46 26 -46 17 0 17 2 2 35 -12 27 -28 33 -28
11z"/>
<path d="M2756 4078 c3 -4 11 -5 19 -1 21 7 19 12 -4 10 -11 0 -18 -5 -15 -9z"/>
<path d="M3045 4020 c-4 -6 11 -10 36 -10 48 0 49 4 2 13 -18 4 -35 2 -38 -3z"/>
<path d="M2770 3948 c1 -26 24 -61 33 -51 4 3 7 -3 7 -14 0 -11 12 -30 26 -44
l26 -24 -7 34 c-5 23 -3 36 6 41 9 6 1 18 -27 44 -45 41 -64 45 -64 14z"/>
<path d="M4285 3920 c3 -5 14 -10 23 -10 15 0 15 2 2 10 -20 13 -33 13 -25 0z"/>
<path d="M2410 3830 c-9 -16 -8 -20 5 -20 8 0 15 6 15 14 0 8 6 17 13 19 7 3
5 6 -5 6 -10 1 -22 -8 -28 -19z"/>
<path d="M4815 3800 c-3 -5 -1 -10 4 -10 6 0 11 5 11 10 0 6 -2 10 -4 10 -3 0
-8 -4 -11 -10z"/>
<path d="M4807 3763 c-4 -3 -7 -11 -7 -17 0 -6 5 -5 12 2 6 6 9 14 7 17 -3 3
-9 2 -12 -2z"/>
<path d="M4406 3605 c10 -8 27 -15 38 -15 15 0 16 3 6 15 -7 8 -24 15 -38 15
-25 0 -25 -1 -6 -15z"/>
<path d="M4730 3570 c0 -5 5 -10 10 -10 6 0 10 5 10 10 0 6 -4 10 -10 10 -5 0
-10 -4 -10 -10z"/>
<path d="M4730 3540 c0 -5 5 -10 10 -10 6 0 10 5 10 10 0 6 -4 10 -10 10 -5 0
-10 -4 -10 -10z"/>
<path d="M2060 3488 c-6 -18 -22 -58 -35 -88 -29 -70 -40 -108 -28 -95 14 15
87 204 81 210 -3 3 -11 -9 -18 -27z"/>
<path d="M2907 3363 c-4 -3 -7 -13 -7 -22 0 -12 3 -11 13 4 10 12 22 16 40 13
15 -3 24 -1 21 3 -6 11 -58 12 -67 2z"/>
<path d="M3017 3312 l-28 -29 32 0 c19 0 37 -7 45 -18 13 -18 14 -18 14 3 0
17 -6 22 -26 22 -16 0 -24 5 -21 13 2 6 12 11 21 11 9 -1 16 4 16 12 0 23 -24
16 -53 -14z"/>
<path d="M2950 3321 c22 -15 5 -24 -20 -11 -12 6 -24 9 -27 6 -9 -8 49 -28 65
-21 19 7 10 29 -14 33 -15 3 -16 1 -4 -7z"/>
<path d="M3114 3285 c-11 -34 -10 -37 14 -46 34 -13 48 -6 54 25 6 31 -1 43
-32 51 -22 5 -26 2 -36 -30z m48 -3 c-27 -4 -37 2 -27 17 4 8 13 7 28 -1 l22
-13 -23 -3z m3 -21 c3 -5 1 -12 -4 -15 -12 -8 -41 3 -41 15 0 12 37 12 45 0z"/>
<path d="M3226 3282 c-3 -5 -10 -22 -16 -37 -10 -25 -9 -27 6 -14 14 11 19 10
33 -8 l17 -21 13 30 c8 17 10 33 5 38 -15 13 -52 21 -58 12z m45 -12 c5 0 9
-7 9 -16 0 -23 -44 -14 -48 10 -3 14 0 17 13 12 9 -3 21 -6 26 -6z"/>
<path d="M1970 3269 c0 -5 5 -7 10 -4 6 3 10 8 10 11 0 2 -4 4 -10 4 -5 0 -10
-5 -10 -11z"/>
<path d="M3312 3223 c-6 -20 -7 -32 -2 -27 10 10 25 64 18 64 -3 0 -10 -16
-16 -37z"/>
<path d="M3361 3218 c-12 -35 -8 -43 29 -51 22 -6 22 -5 -3 5 -33 14 -30 34 4
31 l24 -3 -23 10 c-31 13 -18 32 16 25 23 -4 24 -4 7 4 -33 16 -43 12 -54 -21z"/>
<path d="M1947 3213 c-4 -3 -7 -13 -7 -22 1 -13 3 -13 11 2 11 19 8 33 -4 20z"/>
<path d="M4674 3208 c3 -10 2 -18 -3 -18 -8 0 -24 -60 -18 -67 2 -2 11 14 19
36 11 26 12 43 6 52 -8 11 -9 10 -4 -3z"/>
<path d="M3448 3173 c-4 -17 0 -23 19 -28 14 -3 28 -4 31 0 3 3 -2 5 -12 5 -9
0 -20 10 -25 22 l-8 22 -5 -21z"/>
<path d="M3610 3154 c-13 -32 -13 -44 0 -44 5 0 7 7 3 16 -5 14 -1 16 20 12
15 -3 24 -1 21 3 -3 5 -12 9 -20 9 -8 0 -14 5 -14 11 0 7 12 10 29 7 17 -2 28
-1 25 4 -3 4 -16 8 -30 8 -17 0 -27 -8 -34 -26z"/>
<path d="M3520 3141 c0 -8 41 -23 47 -17 2 1 -8 8 -22 14 -14 6 -25 8 -25 3z"/>
<path d="M2855 3132 c-33 -7 -45 -23 -45 -57 0 -25 6 -34 26 -44 27 -12 64 -7
64 10 0 5 -11 7 -24 3 -22 -5 -56 16 -56 36 0 9 40 40 52 40 3 0 14 -7 23 -16
17 -17 32 -13 20 5 -10 17 -38 28 -60 23z"/>
<path d="M3638 3103 c7 -3 16 -2 19 1 4 3 -2 6 -13 5 -11 0 -14 -3 -6 -6z"/>
<path d="M2961 3078 c-17 -46 -21 -78 -11 -78 5 0 10 6 10 14 0 22 15 27 44
16 23 -8 25 -14 20 -37 -10 -41 7 -19 28 34 19 50 16 68 -5 39 -19 -26 -62
-18 -61 12 0 12 -3 22 -8 22 -5 0 -12 -10 -17 -22z"/>
<path d="M1877 3063 c-28 -53 -99 -234 -94 -239 2 -2 12 17 22 43 10 27 35 86
57 132 21 46 36 86 34 89 -3 2 -11 -9 -19 -25z"/>
<path d="M3105 3010 c-21 -22 -36 -43 -32 -46 4 -4 12 -2 19 3 18 14 78 -4 78
-22 0 -8 5 -15 11 -15 9 0 5 70 -6 108 -7 22 -30 13 -70 -28z m64 -23 c1 -8
-38 0 -48 9 -3 2 4 11 15 18 17 13 20 12 26 -2 4 -9 7 -21 7 -25z"/>
<path d="M3255 3011 c-3 -6 -12 -28 -20 -50 -16 -47 -4 -56 15 -11 12 29 30
41 30 20 0 -6 7 -27 16 -48 l16 -37 18 40 c21 44 25 80 10 70 -5 -3 -10 -15
-10 -25 0 -36 -20 -31 -36 9 -16 41 -27 50 -39 32z"/>
<path d="M1915 2980 c3 -5 8 -10 11 -10 2 0 4 5 4 10 0 6 -5 10 -11 10 -5 0
-7 -4 -4 -10z"/>
<path d="M3393 2941 c-19 -61 -17 -68 23 -76 46 -8 54 -1 15 13 -41 14 -39 32
2 33 l32 1 -28 11 c-37 15 -28 33 14 29 42 -4 29 15 -16 24 -28 5 -31 3 -42
-35z"/>
<path d="M1859 2927 l-22 -42 22 19 c15 14 21 15 21 6 0 -9 5 -7 15 6 19 25
19 40 0 48 -10 4 -22 -8 -36 -37z"/>
<path d="M3526 2939 c-21 -65 -27 -91 -24 -95 3 -2 19 -7 38 -10 24 -5 31 -4
26 4 -4 7 -16 12 -27 12 -22 0 -22 2 -8 53 10 36 5 68 -5 36z"/>
<path d="M1826 2855 c-9 -26 -7 -32 5 -12 6 10 9 21 6 23 -2 3 -7 -2 -11 -11z"/>
<path d="M1580 2190 c0 -5 5 -10 10 -10 6 0 10 5 10 10 0 6 -4 10 -10 10 -5 0
-10 -4 -10 -10z"/>
<path d="M1733 2043 c0 -15 -2 -32 -3 -38 -7 -30 1 -56 18 -53 11 2 17 -3 16
-14 -1 -10 2 -18 7 -18 5 0 9 9 9 21 0 18 4 20 26 15 27 -7 63 -36 45 -36 -6
0 -11 -5 -11 -12 0 -9 3 -9 12 0 16 16 39 114 30 124 -7 7 -68 24 -123 35 -23
4 -26 1 -26 -24z"/>
<path d="M1966 1984 c4 -11 13 -24 19 -29 23 -19 23 -85 1 -85 -7 0 -19 -7
-26 -15 -11 -13 0 -15 91 -15 111 0 365 23 376 34 2 2 -18 9 -44 16 -26 7
-100 28 -163 47 -105 31 -157 45 -233 60 -23 5 -26 3 -21 -13z"/>
<path d="M1754 1831 c4 -6 22 -19 40 -29 18 -9 61 -32 95 -50 33 -18 64 -33
68 -33 14 -2 58 -19 75 -29 10 -6 25 -10 33 -10 8 0 15 -4 15 -9 0 -5 13 -11
29 -14 16 -3 35 -12 42 -19 8 -8 41 -25 74 -38 33 -13 66 -28 74 -34 14 -11
18 -11 83 -14 27 -2 38 -7 43 -23 6 -17 9 -18 22 -7 12 10 17 9 28 -5 7 -9 21
-17 32 -17 11 0 26 -7 33 -15 7 -8 16 -13 20 -10 5 3 16 -5 25 -17 13 -20 17
-21 25 -8 9 13 12 13 23 0 6 -8 26 -16 42 -17 43 -2 98 -14 110 -23 13 -11 97
-34 112 -31 6 1 14 -3 18 -9 3 -5 17 -10 31 -10 14 0 32 -6 40 -14 7 -8 23
-12 35 -9 11 3 37 1 57 -5 20 -6 73 -19 117 -28 44 -10 91 -26 105 -36 15 -12
33 -17 46 -14 13 4 26 2 29 -4 3 -5 28 -10 56 -10 35 0 54 -5 68 -19 11 -11
21 -16 23 -11 3 9 80 -6 110 -21 10 -5 24 -9 32 -9 8 0 17 -6 19 -12 4 -10 6
-10 6 0 1 15 33 16 47 2 19 -19 57 -20 70 -2 11 15 14 13 28 -18 8 -19 14 -26
13 -15 -1 14 5 20 26 21 15 2 27 -1 27 -5 0 -4 7 -8 15 -8 8 0 15 5 15 10 0 5
11 6 25 3 14 -4 37 -3 53 1 l27 6 -30 9 c-86 25 -395 101 -425 105 -19 3 -38
10 -41 15 -4 6 -18 9 -33 6 -14 -3 -23 -2 -21 2 3 4 -8 10 -23 13 -25 5 -111
28 -177 47 -16 5 -65 18 -108 29 -44 12 -99 28 -124 36 -25 9 -79 25 -121 37
-43 11 -97 27 -122 34 -25 7 -115 33 -200 58 -225 64 -418 123 -432 133 -7 4
-17 8 -23 8 -5 1 -19 5 -30 9 -79 32 -95 41 -95 53 0 22 -60 41 -195 62 -27 5
-59 12 -69 16 -14 6 -17 5 -12 -4z"/>
<path d="M2075 1748 c4 -9 23 -20 43 -26 20 -6 62 -18 92 -28 30 -9 80 -18
110 -19 l55 -3 -40 15 c-22 8 -83 25 -135 38 -52 13 -103 27 -113 30 -13 5
-16 3 -12 -7z"/>
<path d="M2916 1717 c-7 -27 0 -33 18 -18 8 7 20 10 25 7 5 -4 12 -2 15 3 3 5
-7 14 -23 19 -26 9 -30 8 -35 -11z"/>
<path d="M3012 1685 c6 -13 19 -27 30 -30 10 -4 18 -11 18 -16 0 -5 11 -9 24
-9 14 0 28 -5 32 -11 4 -7 24 -9 56 -5 34 5 48 4 43 -4 -3 -5 0 -10 9 -10 8 0
17 6 20 13 3 9 8 8 18 -3 7 -8 24 -14 37 -12 13 2 27 -2 31 -8 5 -8 9 -7 13 4
5 11 -1 17 -21 22 -15 3 -38 9 -52 14 -99 33 -165 50 -177 46 -8 -3 -11 -1 -8
4 5 9 -23 15 -47 11 -5 0 -8 4 -8 9 0 6 -7 10 -15 10 -12 0 -13 -4 -3 -25z"/>
<path d="M2400 1650 c0 -5 9 -10 21 -10 11 0 17 5 14 10 -3 6 -13 10 -21 10
-8 0 -14 -4 -14 -10z"/>
<path d="M2456 1629 c3 -6 12 -8 18 -6 7 3 26 -1 42 -9 16 -8 70 -25 119 -38
50 -13 114 -31 143 -39 40 -12 52 -12 52 -3 0 19 -31 42 -65 49 -16 4 -73 15
-125 26 -129 26 -193 33 -184 20z"/>
<path d="M2850 1540 c8 -5 22 -10 30 -10 13 0 13 1 0 10 -8 5 -22 10 -30 10
-13 0 -13 -1 0 -10z"/>
<path d="M2915 1520 c3 -5 8 -10 11 -10 2 0 4 5 4 10 0 6 -5 10 -11 10 -5 0
-7 -4 -4 -10z"/>
<path d="M2875 1510 c3 -5 8 -10 11 -10 2 0 4 5 4 10 0 6 -5 10 -11 10 -5 0
-7 -4 -4 -10z"/>
<path d="M3033 1498 c3 -9 1 -19 -6 -22 -9 -3 -9 -5 0 -5 18 -1 27 19 13 32
-10 9 -12 8 -7 -5z"/>
<path d="M3097 1461 c5 -19 58 -40 69 -28 3 3 -8 8 -25 12 -17 4 -31 13 -31
21 0 8 -4 14 -9 14 -5 0 -7 -9 -4 -19z"/>
<path d="M3130 1460 c8 -5 22 -9 30 -9 10 0 8 3 -5 9 -27 12 -43 12 -25 0z"/>
<path d="M3193 1434 c-14 -14 -21 -12 95 -43 61 -17 72 -17 72 -5 0 11 -7 13
-26 8 -18 -5 -25 -3 -20 4 8 13 3 16 -59 35 -41 12 -52 12 -62 1z"/>
<path d="M3375 1380 c-8 -12 15 -21 128 -50 64 -17 91 -20 98 -11 5 6 6 9 2 6
-3 -3 -15 3 -25 12 -13 11 -37 17 -76 17 -46 1 -57 4 -60 19 -4 19 -56 25 -67
7z"/>
<path d="M4783 814 c-46 -7 -110 -23 -143 -34 -57 -19 -200 -98 -200 -110 0
-3 14 -11 30 -18 36 -16 30 -32 -12 -32 -24 0 -29 -3 -24 -16 5 -14 1 -16 -34
-10 -37 6 -47 2 -128 -52 -48 -32 -114 -73 -147 -92 -74 -41 -72 -39 -56 -50
8 -4 25 -4 38 1 16 6 22 5 18 -1 -4 -6 30 -10 94 -10 110 0 145 -19 39 -21
l-63 -1 50 -13 c28 -6 49 -17 47 -23 -1 -7 5 -12 13 -12 8 0 15 -4 15 -9 0 -4
-18 -3 -40 2 -22 6 -40 14 -40 18 0 4 -15 5 -32 3 -18 -3 -52 -1 -76 4 -53 12
-122 5 -116 -13 5 -12 -88 -72 -168 -110 -21 -9 -38 -21 -38 -26 0 -14 17 -11
34 6 8 8 26 15 40 15 14 0 26 4 26 8 0 4 8 8 18 9 9 1 49 5 87 8 l70 7 23 -36
c12 -20 22 -38 22 -41 0 -11 -326 -5 -338 7 -9 9 -18 8 -39 -1 -31 -15 -152
-51 -168 -51 -14 1 128 79 275 152 74 37 118 64 108 66 -10 2 -43 -8 -73 -22
-31 -14 -63 -22 -72 -19 -10 4 -14 2 -9 -5 5 -9 -19 -23 -44 -27 -18 -2 -106
-51 -113 -62 -5 -7 -12 -11 -18 -8 -9 6 -67 -29 -80 -48 -3 -5 -9 -8 -13 -7
-17 3 -86 -46 -86 -61 0 -25 -16 -32 -40 -17 -15 9 -23 10 -28 2 -4 -6 -25
-14 -47 -18 -22 -4 -48 -15 -57 -23 -10 -9 -24 -13 -33 -9 -9 3 -13 2 -10 -4
4 -6 664 -10 1810 -10 l1805 0 0 180 0 179 -152 75 c-177 85 -208 99 -303 132
-414 145 -615 187 -1145 244 -211 23 -359 24 -477 4z m-282 -317 c26 -34 45
-65 43 -68 -2 -4 -66 -9 -141 -13 -76 -4 -160 -9 -188 -12 l-50 -6 19 21 c24
27 161 115 201 129 56 20 68 15 116 -51z m-151 -107 c0 -5 -4 -10 -10 -10 -5
0 -10 5 -10 10 0 6 5 10 10 10 6 0 10 -4 10 -10z m88 -99 c9 -6 34 -13 55 -16
20 -3 37 -10 37 -15 0 -6 -2 -10 -3 -10 -8 0 -132 42 -136 46 -9 8 30 4 47 -5z
m183 -44 c20 -2 45 -9 55 -15 18 -11 18 -11 -4 -12 -34 0 -112 21 -112 31 0 5
6 7 13 4 6 -2 28 -6 48 -8z m209 -41 c35 -11 39 -15 19 -15 -39 -1 -89 10 -89
20 0 12 18 11 70 -5z m130 -27 c0 -7 16 -8 45 -3 29 4 45 3 45 -4 0 -6 8 -13
18 -15 37 -10 -39 -7 -87 4 -52 11 -78 29 -42 29 12 0 21 -5 21 -11z m215 -39
c3 -5 -1 -10 -9 -10 -9 0 -16 5 -16 10 0 6 4 10 9 10 6 0 13 -4 16 -10z m162
-36 c-3 -3 -12 -4 -19 -1 -8 3 -5 6 6 6 11 1 17 -2 13 -5z m-1870 -90 c-3 -3
-12 -4 -19 -1 -8 3 -5 6 6 6 11 1 17 -2 13 -5z"/>
</g>
</svg>
